<?xml version="1.0" encoding="UTF-8" standalone="no"?>
<!DOCTYPE svg PUBLIC "-//W3C//DTD SVG 1.1//EN" "http://www.w3.org/Graphics/SVG/1.1/DTD/svg11.dtd">
<svg width="100%" height="100%" viewBox="0 0 64 64" version="1.1" xmlns="http://www.w3.org/2000/svg" xmlns:xlink="http://www.w3.org/1999/xlink" xml:space="preserve" xmlns:serif="http://www.serif.com/" style="fill-rule:evenodd;clip-rule:evenodd;stroke-linejoin:round;stroke-miterlimit:2;">
    <g id="Capa-1" serif:id="Capa 1" transform="matrix(0.125,0,0,0.125,0,0.374999)">
        <g transform="matrix(1,0,0,1,341.954,344.477)">
            <path d="M0,-19.119C-12.131,-19.119 -22,-27.661 -22,-38.16C-22,-48.66 -12.131,-57.202 0,-57.202C12.131,-57.202 22,-48.66 22,-38.16C22,-32.639 26.478,-28.16 32,-28.16C37.521,-28.16 42,-32.639 42,-38.16C42,-56.485 28.346,-71.893 10,-76.075L10,-81.276C10,-86.799 5.521,-91.276 0,-91.276C-5.522,-91.276 -10,-86.799 -10,-81.276L-10,-76.075C-28.346,-71.893 -42,-56.485 -42,-38.16C-42,-16.634 -23.159,0.881 0,0.881C12.131,0.881 22,9.423 22,19.923C22,30.423 12.131,38.965 0,38.965C-12.131,38.965 -22,30.423 -22,19.923C-22,14.401 -26.479,9.923 -32,9.923C-37.522,9.923 -42,14.401 -42,19.923C-42,38.247 -28.346,53.655 -10,57.838L-10,62.157C-10,67.68 -5.522,72.157 0,72.157C5.521,72.157 10,67.68 10,62.157L10,57.838C28.346,53.655 42,38.247 42,19.923C42,-1.605 23.159,-19.119 0,-19.119" style="fill:rgb(41,151,197);fill-rule:nonzero;"/>
        </g>
        <g transform="matrix(1,0,0,1,451.482,352.796)">
            <path d="M0,-86.92C-13.063,-107.275 -31.468,-123.563 -53.223,-134.021C-58.201,-136.415 -64.177,-134.319 -66.568,-129.341C-68.961,-124.363 -66.866,-118.389 -61.889,-115.996C-23.978,-97.772 0.518,-58.833 0.518,-16.795C0.518,1.193 -3.916,19.032 -12.304,34.796C-14.897,39.671 -13.049,45.727 -8.173,48.321C-6.677,49.117 -5.068,49.495 -3.484,49.495C0.094,49.495 3.555,47.569 5.353,44.19C15.273,25.546 20.518,4.457 20.518,-16.795C20.518,-41.755 13.423,-66.004 0,-86.92" style="fill:rgb(41,151,197);fill-rule:nonzero;"/>
        </g>
        <g transform="matrix(1,0,0,1,357.673,226.001)">
            <path d="M0,-19.999L-0.673,-20C-6.195,-20 -10.673,-15.523 -10.673,-10C-10.673,-4.477 -6.195,0 -0.673,0L-0.094,0.001L-0.046,0.001C5.455,0.001 9.927,-4.445 9.953,-9.952C9.979,-15.475 5.522,-19.973 0,-19.999" style="fill:rgb(41,151,197);fill-rule:nonzero;"/>
        </g>
        <g transform="matrix(1,0,0,1,294.407,287.306)">
            <path d="M0,147.896C-37.91,129.67 -62.405,90.732 -62.405,48.695C-62.405,30.707 -57.971,12.868 -49.584,-2.896C-46.99,-7.771 -48.839,-13.828 -53.715,-16.421C-58.589,-19.015 -64.647,-17.166 -67.24,-12.291C-77.161,6.355 -82.405,27.443 -82.405,48.695C-82.405,73.655 -75.31,97.903 -61.887,118.82C-48.824,139.175 -30.42,155.463 -8.665,165.922C-7.269,166.594 -5.792,166.911 -4.339,166.911C-0.615,166.911 2.959,164.822 4.681,161.242C7.071,156.264 4.978,150.289 0,147.896" style="fill:rgb(41,151,197);fill-rule:nonzero;"/>
        </g>
        <g transform="matrix(1,0,0,1,327.002,465.989)">
            <path d="M0,-19.988L-0.579,-19.99C-6.127,-20 -10.599,-15.561 -10.624,-10.037C-10.65,-4.514 -6.192,-0.016 -0.67,0.01L0,0.012C5.522,0.012 10,-4.466 10,-9.988C10,-15.51 5.522,-19.988 0,-19.988" style="fill:rgb(41,151,197);fill-rule:nonzero;"/>
        </g>
        <g transform="matrix(1,0,0,1,342.001,20)">
            <path d="M0,466.001C-82.71,466.001 -150,398.711 -150,316.001C-150,233.291 -82.71,166.001 0,166.001C82.71,166.001 150,233.291 150,316.001C150,398.711 82.71,466.001 0,466.001M-242.001,412C-256.338,412 -268.001,400.337 -268.001,386C-268.001,371.663 -256.338,360 -242.001,360L-164.215,360C-159.169,378.813 -150.972,396.346 -140.222,412L-242.001,412ZM-242.001,288L-167.681,288C-169.198,297.113 -170,306.464 -170,316.001C-170,324.147 -169.411,332.157 -168.298,340L-242.001,340C-256.338,340 -268.001,328.337 -268.001,314C-268.001,299.663 -256.338,288 -242.001,288M-242.001,216L-137.386,216C-148.738,231.553 -157.515,249.095 -163.089,268L-242.001,268C-256.338,268 -268.001,256.337 -268.001,242C-268.001,227.664 -256.338,216 -242.001,216M-242.001,144L2.999,144C7.027,144 10.884,144.936 14.344,146.612C9.614,146.215 4.832,146.001 0,146.001C-46.945,146.001 -89.505,165.13 -120.299,196L-242.001,196C-256.337,196 -268.001,184.336 -268.001,170C-268.001,155.664 -256.337,144 -242.001,144M-296.001,52C-310.338,52 -322.001,40.336 -322.001,26C-322.001,11.664 -310.338,0 -296.001,0L-51.001,0C-36.664,0 -25.001,11.664 -25.001,26C-25.001,40.336 -36.664,52 -51.001,52L-296.001,52ZM66.999,72C81.336,72 92.999,83.664 92.999,98C92.999,112.336 81.336,124 66.999,124L2.999,124L-178.001,124C-192.338,124 -204.001,112.336 -204.001,98C-204.001,83.664 -192.338,72 -178.001,72L66.999,72ZM45.408,152.168C44.191,149.268 42.7,146.535 40.965,144L66.999,144C92.363,144 112.999,123.364 112.999,98C112.999,72.636 92.363,52 66.999,52L-13.081,52C-7.99,44.598 -5.001,35.643 -5.001,26C-5.001,0.636 -25.637,-20 -51.001,-20L-296.001,-20C-321.365,-20 -342.001,0.636 -342.001,26C-342.001,51.364 -321.365,72 -296.001,72L-215.921,72C-221.012,79.402 -224.001,88.357 -224.001,98C-224.001,107.643 -221.013,116.598 -215.921,124L-242.001,124C-267.365,124 -288.001,144.636 -288.001,170C-288.001,184.567 -281.187,197.566 -270.586,206C-281.187,214.434 -288.001,227.433 -288.001,242C-288.001,256.567 -281.187,269.566 -270.586,278C-281.187,286.434 -288.001,299.433 -288.001,314C-288.001,328.567 -281.187,341.566 -270.586,350C-281.187,358.434 -288.001,371.433 -288.001,386C-288.001,411.364 -267.365,432 -242.001,432L-124.151,432C-93.105,465.207 -48.938,486.001 0,486.001C93.738,486.001 170,409.739 170,316.001C170,237.984 117.17,172.083 45.408,152.168" style="fill:rgb(41,151,197);fill-rule:nonzero;"/>
        </g>
    </g>
</svg>
